<?xml version="1.0" encoding="iso-8859-1"?>
<!-- Generator: Adobe Illustrator 19.0.0, SVG Export Plug-In . SVG Version: 6.00 Build 0)  -->
<svg version="1.1" id="Layer_1" xmlns="http://www.w3.org/2000/svg" xmlns:xlink="http://www.w3.org/1999/xlink" x="0px" y="0px"
	 viewBox="0 0 512 512" style="enable-background:new 0 0 512 512;" xml:space="preserve">
<rect style="fill:#FF6D3B;" width="512" height="512"/>
<g>
	<path style="fill:#FFFFFF;" d="M332.942,399.613l-13.302-13.328l14.982-14.969l2.369,2.369l2.656-17.008l-5.02,5.016
		l-14.821-14.821l14.841-14.841l7.653,7.654l1.301-8.333l-4.138-4.137l5.669-5.669l1.782-11.411L334.649,322.4l-14.842-14.842
		l14.843-14.843l12.96,12.96l1.301-8.33l-9.445-9.445l12.941-12.941l1.805-11.561l-14.779-14.795l14.875-14.875l3.924,3.924
		l1.3-8.326l-0.411-0.411l0.563-0.563l1.781-11.408l-7.157,7.157l-14.847-14.847l14.799-14.799l9.266,9.285l1.302-8.339
		l-5.752-5.763l7.882-7.882l1.781-11.408l-14.472,14.472l-14.829-14.858l14.868-14.869l14.543,14.543l1.301-8.33l-11.029-11.029
		l14.84-14.841l0.197,0.197l1.855-11.879l-2.052,2.052l-14.837-14.846l4.815-4.815H344.69l4.806,4.808L334.649,125.8l-14.897-14.897
		l4.753-4.759H305.36l4.768,4.768l-14.813,14.834l-14.826-14.855l4.741-4.747h-19.103l4.737,4.746l-14.873,14.89l-14.828-14.828
		l4.808-4.808h-19.243l4.808,4.808l-14.805,14.805l-14.828-14.844l4.773-4.769h-19.151l4.754,4.759l-14.908,14.895l-14.838-14.839
		l4.81-4.815h-9.625l0,0l0,0h-9.636l4.821,4.821l-14.834,14.851l-2.082-2.082l1.865,11.936l0.223-0.223l14.814,14.815
		l-11.035,11.026l1.301,8.326l14.55-14.537l14.854,14.855l-14.844,14.844l-14.448-14.448l1.782,11.409l7.853,7.853l-5.731,5.731
		l1.301,8.326l9.244-9.244l14.876,14.876l-14.807,14.824l-7.252-7.266l1.786,11.433l0.652,0.653l-0.476,0.476l1.302,8.333
		l3.984-3.989l14.843,14.873l-14.81,14.831l1.803,11.541l12.935,12.92l-9.441,9.442l1.301,8.328l12.958-12.958l14.849,14.832
		l-14.84,14.839l-12.271-12.258l1.782,11.408l5.672,5.666l-4.141,4.14l1.302,8.337l7.661-7.661l14.849,14.833l-14.855,14.855
		l-4.994-4.994l2.65,16.964l2.339-2.339l14.846,14.847l-13.174,13.174l1.013,6.485h2.18l-0.026-0.026l14.82-14.82l14.846,14.846
		h9.639l14.879-14.879l14.85,14.833l-0.046,0.046h9.731l-0.052-0.052l14.84-14.839l14.811,14.794l-0.097,0.097h9.83l-0.101-0.101
		l14.663-14.651l14.723,14.752h2.424L332.942,399.613z M329.811,366.504l-14.977,14.964l-14.798-14.827l14.956-14.956
		L329.811,366.504z M275.671,312.365l14.849,14.849l-14.932,14.931l-14.834-14.863L275.671,312.365z M255.945,322.464
		l-14.832-14.861l14.898-14.898l14.847,14.847L255.945,322.464z M280.484,307.551l14.842-14.842l14.849,14.85L295.333,322.4
		L280.484,307.551z M275.671,302.738l-14.847-14.847l14.842-14.842l14.846,14.847L275.671,302.738z M256.011,204.443l-14.842-14.842
		l14.855-14.876l14.844,14.861L256.011,204.443z M275.683,194.405l14.833,14.849l-14.847,14.847l-14.841-14.841L275.683,194.405z
		 M251.194,209.26l-14.843,14.843l-14.828-14.828l14.832-14.853L251.194,209.26z M256.011,214.077l14.841,14.841l-14.843,14.843
		l-14.841-14.841L256.011,214.077z M275.669,233.735l14.843,14.842l-14.843,14.843l-14.842-14.842L275.669,233.735z
		 M251.194,248.576l-14.843,14.843l-14.841-14.841l14.843-14.843L251.194,248.576z M256.011,253.393l14.842,14.842l-14.842,14.842
		l-14.842-14.842L256.011,253.393z M280.482,268.233l14.843-14.843l14.847,14.847l-14.843,14.843L280.482,268.233z M300.141,248.575
		l14.833-14.833l14.838,14.855l-14.825,14.825L300.141,248.575z M295.328,243.761l-14.842-14.843l14.844-14.844l14.834,14.851
		L295.328,243.761z M300.139,209.265l14.852-14.853l14.843,14.843l-14.861,14.861L300.139,209.265z M295.325,204.445l-14.833-14.849
		l14.842-14.841l14.841,14.841L295.325,204.445z M300.147,169.941l14.838-14.838l14.826,14.856l-14.824,14.823L300.147,169.941z
		 M295.33,165.124l-14.869-14.869l14.847-14.868l14.865,14.894L295.33,165.124z M290.516,169.937l-14.839,14.839l-14.847-14.864
		l14.82-14.841L290.516,169.937z M256.022,165.098l-14.838-14.854l14.811-14.828l14.844,14.844L256.022,165.098z M251.216,169.911
		l-14.858,14.879l-14.849-14.849l14.869-14.885L251.216,169.911z M216.694,165.126l-14.85-14.851l14.888-14.888l14.834,14.851
		L216.694,165.126z M211.879,169.946l-14.834,14.851l-14.862-14.862l14.843-14.843L211.879,169.946z M216.694,174.761l14.85,14.849
		l-14.832,14.853l-14.852-14.852L216.694,174.761z M211.901,209.281l-14.833,14.854l-14.854-14.854l14.836-14.852L211.901,209.281z
		 M216.712,214.093l14.825,14.825l-14.843,14.843l-14.815-14.815L216.712,214.093z M211.881,248.575l-14.854,14.854l-14.786-14.816
		l14.829-14.85L211.881,248.575z M216.697,253.39l14.841,14.841l-14.874,14.873l-14.826-14.855L216.697,253.39z M236.356,273.05
		l14.842,14.842l-14.893,14.893l-14.827-14.856L236.356,273.05z M231.488,307.601l-14.787,14.787l-14.85-14.833l14.81-14.81
		L231.488,307.601z M236.296,312.419l14.832,14.861l-14.756,14.756l-14.855-14.838L236.296,312.419z M231.557,346.852
		l-14.839,14.839l-14.855-14.838l14.839-14.839L231.557,346.852z M236.373,351.663l14.856,14.839l-14.84,14.839l-14.855-14.839
		L236.373,351.663z M241.188,346.847l14.749-14.749l14.833,14.863l-14.726,14.725L241.188,346.847z M275.582,351.783l14.827,14.856
		l-14.695,14.695l-14.85-14.833L275.582,351.783z M280.399,346.966l14.937-14.937l14.842,14.842l-14.951,14.951L280.399,346.966z
		 M329.832,327.217l-14.841,14.841l-14.842-14.842l14.841-14.841L329.832,327.217z M314.992,302.743l-14.85-14.85l14.843-14.843
		l14.85,14.85L314.992,302.743z M349.465,268.271l-14.815,14.814l-14.85-14.85l14.822-14.822L349.465,268.271z M349.494,228.915
		l-14.872,14.872l-14.838-14.855l14.864-14.864L349.494,228.915z M349.452,189.638l-14.804,14.804l-14.843-14.843l14.818-14.819
		L349.452,189.638z M334.629,165.142l-14.826-14.856l14.849-14.848l14.842,14.841L334.629,165.142z M354.313,115.776l14.837,14.845
		l-14.842,14.842l-14.841-14.841L354.313,115.776z M314.939,115.727l14.894,14.893l-14.843,14.844l-14.868-14.898L314.939,115.727z
		 M275.674,115.714l14.827,14.856l-14.852,14.873L260.806,130.6L275.674,115.714z M236.349,115.769L251.18,130.6l-14.808,14.825
		l-14.831-14.848L236.349,115.769z M197.091,115.725l14.83,14.846l-14.891,14.891l-14.844-14.845L197.091,115.725z M142.883,130.635
		l14.834-14.851l14.834,14.834l-14.849,14.837L142.883,130.635z M162.517,150.269l14.849-14.837l14.846,14.846l-14.843,14.843
		L162.517,150.269z M162.525,189.593l14.844-14.844l14.864,14.865l-14.836,14.852L162.525,189.593z M162.591,228.925l14.812-14.828
		l14.855,14.855l-14.824,14.845L162.591,228.925z M162.566,268.315l14.861-14.882l14.783,14.813l-14.848,14.848L162.566,268.315z
		 M182.18,287.906l14.841-14.84l14.826,14.855l-14.818,14.817L182.18,287.906z M182.197,327.21l14.839-14.84l14.85,14.833
		l-14.839,14.839L182.197,327.21z M182.187,366.528l14.858-14.858l14.855,14.838l-14.866,14.866L182.187,366.528z M216.694,401.034
		l-14.846-14.846l14.869-14.869l14.855,14.838L216.694,401.034z M256.06,400.989l-14.85-14.833l14.839-14.839l14.85,14.833
		L256.06,400.989z M295.344,400.942l-14.813-14.796l14.688-14.688l14.796,14.825L295.344,400.942z"/>
	<polygon style="fill:#FFFFFF;" points="133.238,106.148 180.055,405.852 186.86,405.852 140.052,106.148 	"/>
	<polygon style="fill:#FFFFFF;" points="371.95,106.148 325.164,405.852 331.968,405.852 378.765,106.148 	"/>
	<rect x="129.06" y="106.15" style="fill:#FFFFFF;" width="253.87" height="39.32"/>
	<polygon style="fill:#FFFFFF;" points="177.836,391.012 180.055,405.852 331.968,405.852 334.188,391.012 	"/>
</g>
<g>
</g>
<g>
</g>
<g>
</g>
<g>
</g>
<g>
</g>
<g>
</g>
<g>
</g>
<g>
</g>
<g>
</g>
<g>
</g>
<g>
</g>
<g>
</g>
<g>
</g>
<g>
</g>
<g>
</g>
</svg>
